<?xml version="1.0" standalone="yes"?>
<svg xmlns="http://www.w3.org/2000/svg" version="1.1" width="256" height="256">
  <rect x="0" y="0" width="256" height="256" style="fill:#fff;shape-rendering:crispEdges;"/>
  <rect x="36.57142857142857" y="36.57142857142857" width="7.314285714285714" height="7.314285714285714" style="fill:#000;shape-rendering:crispEdges;"/>
  <rect x="43.885714285714286" y="36.57142857142857" width="7.314285714285714" height="7.314285714285714" style="fill:#000;shape-rendering:crispEdges;"/>
  <rect x="51.199999999999996" y="36.57142857142857" width="7.314285714285714" height="7.314285714285714" style="fill:#000;shape-rendering:crispEdges;"/>
  <rect x="58.51428571428571" y="36.57142857142857" width="7.314285714285714" height="7.314285714285714" style="fill:#000;shape-rendering:crispEdges;"/>
  <rect x="65.82857142857142" y="36.57142857142857" width="7.314285714285714" height="7.314285714285714" style="fill:#000;shape-rendering:crispEdges;"/>
  <rect x="73.14285714285714" y="36.57142857142857" width="7.314285714285714" height="7.314285714285714" style="fill:#000;shape-rendering:crispEdges;"/>
  <rect x="80.45714285714286" y="36.57142857142857" width="7.314285714285714" height="7.314285714285714" style="fill:#000;shape-rendering:crispEdges;"/>
  <rect x="95.08571428571429" y="36.57142857142857" width="7.314285714285714" height="7.314285714285714" style="fill:#000;shape-rendering:crispEdges;"/>
  <rect x="124.34285714285714" y="36.57142857142857" width="7.314285714285714" height="7.314285714285714" style="fill:#000;shape-rendering:crispEdges;"/>
  <rect x="131.65714285714284" y="36.57142857142857" width="7.314285714285714" height="7.314285714285714" style="fill:#000;shape-rendering:crispEdges;"/>
  <rect x="138.97142857142856" y="36.57142857142857" width="7.314285714285714" height="7.314285714285714" style="fill:#000;shape-rendering:crispEdges;"/>
  <rect x="146.28571428571428" y="36.57142857142857" width="7.314285714285714" height="7.314285714285714" style="fill:#000;shape-rendering:crispEdges;"/>
  <rect x="153.6" y="36.57142857142857" width="7.314285714285714" height="7.314285714285714" style="fill:#000;shape-rendering:crispEdges;"/>
  <rect x="168.2285714285714" y="36.57142857142857" width="7.314285714285714" height="7.314285714285714" style="fill:#000;shape-rendering:crispEdges;"/>
  <rect x="175.54285714285714" y="36.57142857142857" width="7.314285714285714" height="7.314285714285714" style="fill:#000;shape-rendering:crispEdges;"/>
  <rect x="182.85714285714283" y="36.57142857142857" width="7.314285714285714" height="7.314285714285714" style="fill:#000;shape-rendering:crispEdges;"/>
  <rect x="190.17142857142858" y="36.57142857142857" width="7.314285714285714" height="7.314285714285714" style="fill:#000;shape-rendering:crispEdges;"/>
  <rect x="197.48571428571427" y="36.57142857142857" width="7.314285714285714" height="7.314285714285714" style="fill:#000;shape-rendering:crispEdges;"/>
  <rect x="204.8" y="36.57142857142857" width="7.314285714285714" height="7.314285714285714" style="fill:#000;shape-rendering:crispEdges;"/>
  <rect x="212.1142857142857" y="36.57142857142857" width="7.314285714285714" height="7.314285714285714" style="fill:#000;shape-rendering:crispEdges;"/>
  <rect x="36.57142857142857" y="43.885714285714286" width="7.314285714285714" height="7.314285714285714" style="fill:#000;shape-rendering:crispEdges;"/>
  <rect x="80.45714285714286" y="43.885714285714286" width="7.314285714285714" height="7.314285714285714" style="fill:#000;shape-rendering:crispEdges;"/>
  <rect x="102.39999999999999" y="43.885714285714286" width="7.314285714285714" height="7.314285714285714" style="fill:#000;shape-rendering:crispEdges;"/>
  <rect x="117.02857142857142" y="43.885714285714286" width="7.314285714285714" height="7.314285714285714" style="fill:#000;shape-rendering:crispEdges;"/>
  <rect x="124.34285714285714" y="43.885714285714286" width="7.314285714285714" height="7.314285714285714" style="fill:#000;shape-rendering:crispEdges;"/>
  <rect x="131.65714285714284" y="43.885714285714286" width="7.314285714285714" height="7.314285714285714" style="fill:#000;shape-rendering:crispEdges;"/>
  <rect x="138.97142857142856" y="43.885714285714286" width="7.314285714285714" height="7.314285714285714" style="fill:#000;shape-rendering:crispEdges;"/>
  <rect x="168.2285714285714" y="43.885714285714286" width="7.314285714285714" height="7.314285714285714" style="fill:#000;shape-rendering:crispEdges;"/>
  <rect x="212.1142857142857" y="43.885714285714286" width="7.314285714285714" height="7.314285714285714" style="fill:#000;shape-rendering:crispEdges;"/>
  <rect x="36.57142857142857" y="51.199999999999996" width="7.314285714285714" height="7.314285714285714" style="fill:#000;shape-rendering:crispEdges;"/>
  <rect x="51.199999999999996" y="51.199999999999996" width="7.314285714285714" height="7.314285714285714" style="fill:#000;shape-rendering:crispEdges;"/>
  <rect x="58.51428571428571" y="51.199999999999996" width="7.314285714285714" height="7.314285714285714" style="fill:#000;shape-rendering:crispEdges;"/>
  <rect x="65.82857142857142" y="51.199999999999996" width="7.314285714285714" height="7.314285714285714" style="fill:#000;shape-rendering:crispEdges;"/>
  <rect x="80.45714285714286" y="51.199999999999996" width="7.314285714285714" height="7.314285714285714" style="fill:#000;shape-rendering:crispEdges;"/>
  <rect x="102.39999999999999" y="51.199999999999996" width="7.314285714285714" height="7.314285714285714" style="fill:#000;shape-rendering:crispEdges;"/>
  <rect x="109.71428571428571" y="51.199999999999996" width="7.314285714285714" height="7.314285714285714" style="fill:#000;shape-rendering:crispEdges;"/>
  <rect x="117.02857142857142" y="51.199999999999996" width="7.314285714285714" height="7.314285714285714" style="fill:#000;shape-rendering:crispEdges;"/>
  <rect x="131.65714285714284" y="51.199999999999996" width="7.314285714285714" height="7.314285714285714" style="fill:#000;shape-rendering:crispEdges;"/>
  <rect x="146.28571428571428" y="51.199999999999996" width="7.314285714285714" height="7.314285714285714" style="fill:#000;shape-rendering:crispEdges;"/>
  <rect x="168.2285714285714" y="51.199999999999996" width="7.314285714285714" height="7.314285714285714" style="fill:#000;shape-rendering:crispEdges;"/>
  <rect x="182.85714285714283" y="51.199999999999996" width="7.314285714285714" height="7.314285714285714" style="fill:#000;shape-rendering:crispEdges;"/>
  <rect x="190.17142857142858" y="51.199999999999996" width="7.314285714285714" height="7.314285714285714" style="fill:#000;shape-rendering:crispEdges;"/>
  <rect x="197.48571428571427" y="51.199999999999996" width="7.314285714285714" height="7.314285714285714" style="fill:#000;shape-rendering:crispEdges;"/>
  <rect x="212.1142857142857" y="51.199999999999996" width="7.314285714285714" height="7.314285714285714" style="fill:#000;shape-rendering:crispEdges;"/>
  <rect x="36.57142857142857" y="58.51428571428571" width="7.314285714285714" height="7.314285714285714" style="fill:#000;shape-rendering:crispEdges;"/>
  <rect x="51.199999999999996" y="58.51428571428571" width="7.314285714285714" height="7.314285714285714" style="fill:#000;shape-rendering:crispEdges;"/>
  <rect x="58.51428571428571" y="58.51428571428571" width="7.314285714285714" height="7.314285714285714" style="fill:#000;shape-rendering:crispEdges;"/>
  <rect x="65.82857142857142" y="58.51428571428571" width="7.314285714285714" height="7.314285714285714" style="fill:#000;shape-rendering:crispEdges;"/>
  <rect x="80.45714285714286" y="58.51428571428571" width="7.314285714285714" height="7.314285714285714" style="fill:#000;shape-rendering:crispEdges;"/>
  <rect x="95.08571428571429" y="58.51428571428571" width="7.314285714285714" height="7.314285714285714" style="fill:#000;shape-rendering:crispEdges;"/>
  <rect x="109.71428571428571" y="58.51428571428571" width="7.314285714285714" height="7.314285714285714" style="fill:#000;shape-rendering:crispEdges;"/>
  <rect x="138.97142857142856" y="58.51428571428571" width="7.314285714285714" height="7.314285714285714" style="fill:#000;shape-rendering:crispEdges;"/>
  <rect x="146.28571428571428" y="58.51428571428571" width="7.314285714285714" height="7.314285714285714" style="fill:#000;shape-rendering:crispEdges;"/>
  <rect x="153.6" y="58.51428571428571" width="7.314285714285714" height="7.314285714285714" style="fill:#000;shape-rendering:crispEdges;"/>
  <rect x="168.2285714285714" y="58.51428571428571" width="7.314285714285714" height="7.314285714285714" style="fill:#000;shape-rendering:crispEdges;"/>
  <rect x="182.85714285714283" y="58.51428571428571" width="7.314285714285714" height="7.314285714285714" style="fill:#000;shape-rendering:crispEdges;"/>
  <rect x="190.17142857142858" y="58.51428571428571" width="7.314285714285714" height="7.314285714285714" style="fill:#000;shape-rendering:crispEdges;"/>
  <rect x="197.48571428571427" y="58.51428571428571" width="7.314285714285714" height="7.314285714285714" style="fill:#000;shape-rendering:crispEdges;"/>
  <rect x="212.1142857142857" y="58.51428571428571" width="7.314285714285714" height="7.314285714285714" style="fill:#000;shape-rendering:crispEdges;"/>
  <rect x="36.57142857142857" y="65.82857142857142" width="7.314285714285714" height="7.314285714285714" style="fill:#000;shape-rendering:crispEdges;"/>
  <rect x="51.199999999999996" y="65.82857142857142" width="7.314285714285714" height="7.314285714285714" style="fill:#000;shape-rendering:crispEdges;"/>
  <rect x="58.51428571428571" y="65.82857142857142" width="7.314285714285714" height="7.314285714285714" style="fill:#000;shape-rendering:crispEdges;"/>
  <rect x="65.82857142857142" y="65.82857142857142" width="7.314285714285714" height="7.314285714285714" style="fill:#000;shape-rendering:crispEdges;"/>
  <rect x="80.45714285714286" y="65.82857142857142" width="7.314285714285714" height="7.314285714285714" style="fill:#000;shape-rendering:crispEdges;"/>
  <rect x="95.08571428571429" y="65.82857142857142" width="7.314285714285714" height="7.314285714285714" style="fill:#000;shape-rendering:crispEdges;"/>
  <rect x="102.39999999999999" y="65.82857142857142" width="7.314285714285714" height="7.314285714285714" style="fill:#000;shape-rendering:crispEdges;"/>
  <rect x="117.02857142857142" y="65.82857142857142" width="7.314285714285714" height="7.314285714285714" style="fill:#000;shape-rendering:crispEdges;"/>
  <rect x="131.65714285714284" y="65.82857142857142" width="7.314285714285714" height="7.314285714285714" style="fill:#000;shape-rendering:crispEdges;"/>
  <rect x="168.2285714285714" y="65.82857142857142" width="7.314285714285714" height="7.314285714285714" style="fill:#000;shape-rendering:crispEdges;"/>
  <rect x="182.85714285714283" y="65.82857142857142" width="7.314285714285714" height="7.314285714285714" style="fill:#000;shape-rendering:crispEdges;"/>
  <rect x="190.17142857142858" y="65.82857142857142" width="7.314285714285714" height="7.314285714285714" style="fill:#000;shape-rendering:crispEdges;"/>
  <rect x="197.48571428571427" y="65.82857142857142" width="7.314285714285714" height="7.314285714285714" style="fill:#000;shape-rendering:crispEdges;"/>
  <rect x="212.1142857142857" y="65.82857142857142" width="7.314285714285714" height="7.314285714285714" style="fill:#000;shape-rendering:crispEdges;"/>
  <rect x="36.57142857142857" y="73.14285714285714" width="7.314285714285714" height="7.314285714285714" style="fill:#000;shape-rendering:crispEdges;"/>
  <rect x="80.45714285714286" y="73.14285714285714" width="7.314285714285714" height="7.314285714285714" style="fill:#000;shape-rendering:crispEdges;"/>
  <rect x="95.08571428571429" y="73.14285714285714" width="7.314285714285714" height="7.314285714285714" style="fill:#000;shape-rendering:crispEdges;"/>
  <rect x="102.39999999999999" y="73.14285714285714" width="7.314285714285714" height="7.314285714285714" style="fill:#000;shape-rendering:crispEdges;"/>
  <rect x="109.71428571428571" y="73.14285714285714" width="7.314285714285714" height="7.314285714285714" style="fill:#000;shape-rendering:crispEdges;"/>
  <rect x="138.97142857142856" y="73.14285714285714" width="7.314285714285714" height="7.314285714285714" style="fill:#000;shape-rendering:crispEdges;"/>
  <rect x="153.6" y="73.14285714285714" width="7.314285714285714" height="7.314285714285714" style="fill:#000;shape-rendering:crispEdges;"/>
  <rect x="168.2285714285714" y="73.14285714285714" width="7.314285714285714" height="7.314285714285714" style="fill:#000;shape-rendering:crispEdges;"/>
  <rect x="212.1142857142857" y="73.14285714285714" width="7.314285714285714" height="7.314285714285714" style="fill:#000;shape-rendering:crispEdges;"/>
  <rect x="36.57142857142857" y="80.45714285714286" width="7.314285714285714" height="7.314285714285714" style="fill:#000;shape-rendering:crispEdges;"/>
  <rect x="43.885714285714286" y="80.45714285714286" width="7.314285714285714" height="7.314285714285714" style="fill:#000;shape-rendering:crispEdges;"/>
  <rect x="51.199999999999996" y="80.45714285714286" width="7.314285714285714" height="7.314285714285714" style="fill:#000;shape-rendering:crispEdges;"/>
  <rect x="58.51428571428571" y="80.45714285714286" width="7.314285714285714" height="7.314285714285714" style="fill:#000;shape-rendering:crispEdges;"/>
  <rect x="65.82857142857142" y="80.45714285714286" width="7.314285714285714" height="7.314285714285714" style="fill:#000;shape-rendering:crispEdges;"/>
  <rect x="73.14285714285714" y="80.45714285714286" width="7.314285714285714" height="7.314285714285714" style="fill:#000;shape-rendering:crispEdges;"/>
  <rect x="80.45714285714286" y="80.45714285714286" width="7.314285714285714" height="7.314285714285714" style="fill:#000;shape-rendering:crispEdges;"/>
  <rect x="95.08571428571429" y="80.45714285714286" width="7.314285714285714" height="7.314285714285714" style="fill:#000;shape-rendering:crispEdges;"/>
  <rect x="109.71428571428571" y="80.45714285714286" width="7.314285714285714" height="7.314285714285714" style="fill:#000;shape-rendering:crispEdges;"/>
  <rect x="124.34285714285714" y="80.45714285714286" width="7.314285714285714" height="7.314285714285714" style="fill:#000;shape-rendering:crispEdges;"/>
  <rect x="138.97142857142856" y="80.45714285714286" width="7.314285714285714" height="7.314285714285714" style="fill:#000;shape-rendering:crispEdges;"/>
  <rect x="153.6" y="80.45714285714286" width="7.314285714285714" height="7.314285714285714" style="fill:#000;shape-rendering:crispEdges;"/>
  <rect x="168.2285714285714" y="80.45714285714286" width="7.314285714285714" height="7.314285714285714" style="fill:#000;shape-rendering:crispEdges;"/>
  <rect x="175.54285714285714" y="80.45714285714286" width="7.314285714285714" height="7.314285714285714" style="fill:#000;shape-rendering:crispEdges;"/>
  <rect x="182.85714285714283" y="80.45714285714286" width="7.314285714285714" height="7.314285714285714" style="fill:#000;shape-rendering:crispEdges;"/>
  <rect x="190.17142857142858" y="80.45714285714286" width="7.314285714285714" height="7.314285714285714" style="fill:#000;shape-rendering:crispEdges;"/>
  <rect x="197.48571428571427" y="80.45714285714286" width="7.314285714285714" height="7.314285714285714" style="fill:#000;shape-rendering:crispEdges;"/>
  <rect x="204.8" y="80.45714285714286" width="7.314285714285714" height="7.314285714285714" style="fill:#000;shape-rendering:crispEdges;"/>
  <rect x="212.1142857142857" y="80.45714285714286" width="7.314285714285714" height="7.314285714285714" style="fill:#000;shape-rendering:crispEdges;"/>
  <rect x="95.08571428571429" y="87.77142857142857" width="7.314285714285714" height="7.314285714285714" style="fill:#000;shape-rendering:crispEdges;"/>
  <rect x="124.34285714285714" y="87.77142857142857" width="7.314285714285714" height="7.314285714285714" style="fill:#000;shape-rendering:crispEdges;"/>
  <rect x="138.97142857142856" y="87.77142857142857" width="7.314285714285714" height="7.314285714285714" style="fill:#000;shape-rendering:crispEdges;"/>
  <rect x="146.28571428571428" y="87.77142857142857" width="7.314285714285714" height="7.314285714285714" style="fill:#000;shape-rendering:crispEdges;"/>
  <rect x="36.57142857142857" y="95.08571428571429" width="7.314285714285714" height="7.314285714285714" style="fill:#000;shape-rendering:crispEdges;"/>
  <rect x="43.885714285714286" y="95.08571428571429" width="7.314285714285714" height="7.314285714285714" style="fill:#000;shape-rendering:crispEdges;"/>
  <rect x="51.199999999999996" y="95.08571428571429" width="7.314285714285714" height="7.314285714285714" style="fill:#000;shape-rendering:crispEdges;"/>
  <rect x="65.82857142857142" y="95.08571428571429" width="7.314285714285714" height="7.314285714285714" style="fill:#000;shape-rendering:crispEdges;"/>
  <rect x="80.45714285714286" y="95.08571428571429" width="7.314285714285714" height="7.314285714285714" style="fill:#000;shape-rendering:crispEdges;"/>
  <rect x="95.08571428571429" y="95.08571428571429" width="7.314285714285714" height="7.314285714285714" style="fill:#000;shape-rendering:crispEdges;"/>
  <rect x="117.02857142857142" y="95.08571428571429" width="7.314285714285714" height="7.314285714285714" style="fill:#000;shape-rendering:crispEdges;"/>
  <rect x="138.97142857142856" y="95.08571428571429" width="7.314285714285714" height="7.314285714285714" style="fill:#000;shape-rendering:crispEdges;"/>
  <rect x="160.9142857142857" y="95.08571428571429" width="7.314285714285714" height="7.314285714285714" style="fill:#000;shape-rendering:crispEdges;"/>
  <rect x="168.2285714285714" y="95.08571428571429" width="7.314285714285714" height="7.314285714285714" style="fill:#000;shape-rendering:crispEdges;"/>
  <rect x="175.54285714285714" y="95.08571428571429" width="7.314285714285714" height="7.314285714285714" style="fill:#000;shape-rendering:crispEdges;"/>
  <rect x="182.85714285714283" y="95.08571428571429" width="7.314285714285714" height="7.314285714285714" style="fill:#000;shape-rendering:crispEdges;"/>
  <rect x="190.17142857142858" y="95.08571428571429" width="7.314285714285714" height="7.314285714285714" style="fill:#000;shape-rendering:crispEdges;"/>
  <rect x="212.1142857142857" y="95.08571428571429" width="7.314285714285714" height="7.314285714285714" style="fill:#000;shape-rendering:crispEdges;"/>
  <rect x="58.51428571428571" y="102.39999999999999" width="7.314285714285714" height="7.314285714285714" style="fill:#000;shape-rendering:crispEdges;"/>
  <rect x="73.14285714285714" y="102.39999999999999" width="7.314285714285714" height="7.314285714285714" style="fill:#000;shape-rendering:crispEdges;"/>
  <rect x="87.77142857142857" y="102.39999999999999" width="7.314285714285714" height="7.314285714285714" style="fill:#000;shape-rendering:crispEdges;"/>
  <rect x="102.39999999999999" y="102.39999999999999" width="7.314285714285714" height="7.314285714285714" style="fill:#000;shape-rendering:crispEdges;"/>
  <rect x="109.71428571428571" y="102.39999999999999" width="7.314285714285714" height="7.314285714285714" style="fill:#000;shape-rendering:crispEdges;"/>
  <rect x="117.02857142857142" y="102.39999999999999" width="7.314285714285714" height="7.314285714285714" style="fill:#000;shape-rendering:crispEdges;"/>
  <rect x="124.34285714285714" y="102.39999999999999" width="7.314285714285714" height="7.314285714285714" style="fill:#000;shape-rendering:crispEdges;"/>
  <rect x="131.65714285714284" y="102.39999999999999" width="7.314285714285714" height="7.314285714285714" style="fill:#000;shape-rendering:crispEdges;"/>
  <rect x="138.97142857142856" y="102.39999999999999" width="7.314285714285714" height="7.314285714285714" style="fill:#000;shape-rendering:crispEdges;"/>
  <rect x="146.28571428571428" y="102.39999999999999" width="7.314285714285714" height="7.314285714285714" style="fill:#000;shape-rendering:crispEdges;"/>
  <rect x="160.9142857142857" y="102.39999999999999" width="7.314285714285714" height="7.314285714285714" style="fill:#000;shape-rendering:crispEdges;"/>
  <rect x="168.2285714285714" y="102.39999999999999" width="7.314285714285714" height="7.314285714285714" style="fill:#000;shape-rendering:crispEdges;"/>
  <rect x="182.85714285714283" y="102.39999999999999" width="7.314285714285714" height="7.314285714285714" style="fill:#000;shape-rendering:crispEdges;"/>
  <rect x="212.1142857142857" y="102.39999999999999" width="7.314285714285714" height="7.314285714285714" style="fill:#000;shape-rendering:crispEdges;"/>
  <rect x="36.57142857142857" y="109.71428571428571" width="7.314285714285714" height="7.314285714285714" style="fill:#000;shape-rendering:crispEdges;"/>
  <rect x="43.885714285714286" y="109.71428571428571" width="7.314285714285714" height="7.314285714285714" style="fill:#000;shape-rendering:crispEdges;"/>
  <rect x="58.51428571428571" y="109.71428571428571" width="7.314285714285714" height="7.314285714285714" style="fill:#000;shape-rendering:crispEdges;"/>
  <rect x="80.45714285714286" y="109.71428571428571" width="7.314285714285714" height="7.314285714285714" style="fill:#000;shape-rendering:crispEdges;"/>
  <rect x="87.77142857142857" y="109.71428571428571" width="7.314285714285714" height="7.314285714285714" style="fill:#000;shape-rendering:crispEdges;"/>
  <rect x="117.02857142857142" y="109.71428571428571" width="7.314285714285714" height="7.314285714285714" style="fill:#000;shape-rendering:crispEdges;"/>
  <rect x="138.97142857142856" y="109.71428571428571" width="7.314285714285714" height="7.314285714285714" style="fill:#000;shape-rendering:crispEdges;"/>
  <rect x="182.85714285714283" y="109.71428571428571" width="7.314285714285714" height="7.314285714285714" style="fill:#000;shape-rendering:crispEdges;"/>
  <rect x="197.48571428571427" y="109.71428571428571" width="7.314285714285714" height="7.314285714285714" style="fill:#000;shape-rendering:crispEdges;"/>
  <rect x="212.1142857142857" y="109.71428571428571" width="7.314285714285714" height="7.314285714285714" style="fill:#000;shape-rendering:crispEdges;"/>
  <rect x="87.77142857142857" y="117.02857142857142" width="7.314285714285714" height="7.314285714285714" style="fill:#000;shape-rendering:crispEdges;"/>
  <rect x="95.08571428571429" y="117.02857142857142" width="7.314285714285714" height="7.314285714285714" style="fill:#000;shape-rendering:crispEdges;"/>
  <rect x="102.39999999999999" y="117.02857142857142" width="7.314285714285714" height="7.314285714285714" style="fill:#000;shape-rendering:crispEdges;"/>
  <rect x="153.6" y="117.02857142857142" width="7.314285714285714" height="7.314285714285714" style="fill:#000;shape-rendering:crispEdges;"/>
  <rect x="160.9142857142857" y="117.02857142857142" width="7.314285714285714" height="7.314285714285714" style="fill:#000;shape-rendering:crispEdges;"/>
  <rect x="175.54285714285714" y="117.02857142857142" width="7.314285714285714" height="7.314285714285714" style="fill:#000;shape-rendering:crispEdges;"/>
  <rect x="182.85714285714283" y="117.02857142857142" width="7.314285714285714" height="7.314285714285714" style="fill:#000;shape-rendering:crispEdges;"/>
  <rect x="197.48571428571427" y="117.02857142857142" width="7.314285714285714" height="7.314285714285714" style="fill:#000;shape-rendering:crispEdges;"/>
  <rect x="204.8" y="117.02857142857142" width="7.314285714285714" height="7.314285714285714" style="fill:#000;shape-rendering:crispEdges;"/>
  <rect x="212.1142857142857" y="117.02857142857142" width="7.314285714285714" height="7.314285714285714" style="fill:#000;shape-rendering:crispEdges;"/>
  <rect x="36.57142857142857" y="124.34285714285714" width="7.314285714285714" height="7.314285714285714" style="fill:#000;shape-rendering:crispEdges;"/>
  <rect x="43.885714285714286" y="124.34285714285714" width="7.314285714285714" height="7.314285714285714" style="fill:#000;shape-rendering:crispEdges;"/>
  <rect x="80.45714285714286" y="124.34285714285714" width="7.314285714285714" height="7.314285714285714" style="fill:#000;shape-rendering:crispEdges;"/>
  <rect x="102.39999999999999" y="124.34285714285714" width="7.314285714285714" height="7.314285714285714" style="fill:#000;shape-rendering:crispEdges;"/>
  <rect x="109.71428571428571" y="124.34285714285714" width="7.314285714285714" height="7.314285714285714" style="fill:#000;shape-rendering:crispEdges;"/>
  <rect x="117.02857142857142" y="124.34285714285714" width="7.314285714285714" height="7.314285714285714" style="fill:#000;shape-rendering:crispEdges;"/>
  <rect x="131.65714285714284" y="124.34285714285714" width="7.314285714285714" height="7.314285714285714" style="fill:#000;shape-rendering:crispEdges;"/>
  <rect x="146.28571428571428" y="124.34285714285714" width="7.314285714285714" height="7.314285714285714" style="fill:#000;shape-rendering:crispEdges;"/>
  <rect x="153.6" y="124.34285714285714" width="7.314285714285714" height="7.314285714285714" style="fill:#000;shape-rendering:crispEdges;"/>
  <rect x="168.2285714285714" y="124.34285714285714" width="7.314285714285714" height="7.314285714285714" style="fill:#000;shape-rendering:crispEdges;"/>
  <rect x="190.17142857142858" y="124.34285714285714" width="7.314285714285714" height="7.314285714285714" style="fill:#000;shape-rendering:crispEdges;"/>
  <rect x="204.8" y="124.34285714285714" width="7.314285714285714" height="7.314285714285714" style="fill:#000;shape-rendering:crispEdges;"/>
  <rect x="212.1142857142857" y="124.34285714285714" width="7.314285714285714" height="7.314285714285714" style="fill:#000;shape-rendering:crispEdges;"/>
  <rect x="43.885714285714286" y="131.65714285714284" width="7.314285714285714" height="7.314285714285714" style="fill:#000;shape-rendering:crispEdges;"/>
  <rect x="51.199999999999996" y="131.65714285714284" width="7.314285714285714" height="7.314285714285714" style="fill:#000;shape-rendering:crispEdges;"/>
  <rect x="65.82857142857142" y="131.65714285714284" width="7.314285714285714" height="7.314285714285714" style="fill:#000;shape-rendering:crispEdges;"/>
  <rect x="73.14285714285714" y="131.65714285714284" width="7.314285714285714" height="7.314285714285714" style="fill:#000;shape-rendering:crispEdges;"/>
  <rect x="95.08571428571429" y="131.65714285714284" width="7.314285714285714" height="7.314285714285714" style="fill:#000;shape-rendering:crispEdges;"/>
  <rect x="124.34285714285714" y="131.65714285714284" width="7.314285714285714" height="7.314285714285714" style="fill:#000;shape-rendering:crispEdges;"/>
  <rect x="146.28571428571428" y="131.65714285714284" width="7.314285714285714" height="7.314285714285714" style="fill:#000;shape-rendering:crispEdges;"/>
  <rect x="168.2285714285714" y="131.65714285714284" width="7.314285714285714" height="7.314285714285714" style="fill:#000;shape-rendering:crispEdges;"/>
  <rect x="175.54285714285714" y="131.65714285714284" width="7.314285714285714" height="7.314285714285714" style="fill:#000;shape-rendering:crispEdges;"/>
  <rect x="182.85714285714283" y="131.65714285714284" width="7.314285714285714" height="7.314285714285714" style="fill:#000;shape-rendering:crispEdges;"/>
  <rect x="190.17142857142858" y="131.65714285714284" width="7.314285714285714" height="7.314285714285714" style="fill:#000;shape-rendering:crispEdges;"/>
  <rect x="197.48571428571427" y="131.65714285714284" width="7.314285714285714" height="7.314285714285714" style="fill:#000;shape-rendering:crispEdges;"/>
  <rect x="204.8" y="131.65714285714284" width="7.314285714285714" height="7.314285714285714" style="fill:#000;shape-rendering:crispEdges;"/>
  <rect x="212.1142857142857" y="131.65714285714284" width="7.314285714285714" height="7.314285714285714" style="fill:#000;shape-rendering:crispEdges;"/>
  <rect x="36.57142857142857" y="138.97142857142856" width="7.314285714285714" height="7.314285714285714" style="fill:#000;shape-rendering:crispEdges;"/>
  <rect x="51.199999999999996" y="138.97142857142856" width="7.314285714285714" height="7.314285714285714" style="fill:#000;shape-rendering:crispEdges;"/>
  <rect x="58.51428571428571" y="138.97142857142856" width="7.314285714285714" height="7.314285714285714" style="fill:#000;shape-rendering:crispEdges;"/>
  <rect x="65.82857142857142" y="138.97142857142856" width="7.314285714285714" height="7.314285714285714" style="fill:#000;shape-rendering:crispEdges;"/>
  <rect x="73.14285714285714" y="138.97142857142856" width="7.314285714285714" height="7.314285714285714" style="fill:#000;shape-rendering:crispEdges;"/>
  <rect x="80.45714285714286" y="138.97142857142856" width="7.314285714285714" height="7.314285714285714" style="fill:#000;shape-rendering:crispEdges;"/>
  <rect x="87.77142857142857" y="138.97142857142856" width="7.314285714285714" height="7.314285714285714" style="fill:#000;shape-rendering:crispEdges;"/>
  <rect x="95.08571428571429" y="138.97142857142856" width="7.314285714285714" height="7.314285714285714" style="fill:#000;shape-rendering:crispEdges;"/>
  <rect x="102.39999999999999" y="138.97142857142856" width="7.314285714285714" height="7.314285714285714" style="fill:#000;shape-rendering:crispEdges;"/>
  <rect x="109.71428571428571" y="138.97142857142856" width="7.314285714285714" height="7.314285714285714" style="fill:#000;shape-rendering:crispEdges;"/>
  <rect x="117.02857142857142" y="138.97142857142856" width="7.314285714285714" height="7.314285714285714" style="fill:#000;shape-rendering:crispEdges;"/>
  <rect x="124.34285714285714" y="138.97142857142856" width="7.314285714285714" height="7.314285714285714" style="fill:#000;shape-rendering:crispEdges;"/>
  <rect x="138.97142857142856" y="138.97142857142856" width="7.314285714285714" height="7.314285714285714" style="fill:#000;shape-rendering:crispEdges;"/>
  <rect x="146.28571428571428" y="138.97142857142856" width="7.314285714285714" height="7.314285714285714" style="fill:#000;shape-rendering:crispEdges;"/>
  <rect x="168.2285714285714" y="138.97142857142856" width="7.314285714285714" height="7.314285714285714" style="fill:#000;shape-rendering:crispEdges;"/>
  <rect x="58.51428571428571" y="146.28571428571428" width="7.314285714285714" height="7.314285714285714" style="fill:#000;shape-rendering:crispEdges;"/>
  <rect x="87.77142857142857" y="146.28571428571428" width="7.314285714285714" height="7.314285714285714" style="fill:#000;shape-rendering:crispEdges;"/>
  <rect x="95.08571428571429" y="146.28571428571428" width="7.314285714285714" height="7.314285714285714" style="fill:#000;shape-rendering:crispEdges;"/>
  <rect x="102.39999999999999" y="146.28571428571428" width="7.314285714285714" height="7.314285714285714" style="fill:#000;shape-rendering:crispEdges;"/>
  <rect x="109.71428571428571" y="146.28571428571428" width="7.314285714285714" height="7.314285714285714" style="fill:#000;shape-rendering:crispEdges;"/>
  <rect x="117.02857142857142" y="146.28571428571428" width="7.314285714285714" height="7.314285714285714" style="fill:#000;shape-rendering:crispEdges;"/>
  <rect x="131.65714285714284" y="146.28571428571428" width="7.314285714285714" height="7.314285714285714" style="fill:#000;shape-rendering:crispEdges;"/>
  <rect x="138.97142857142856" y="146.28571428571428" width="7.314285714285714" height="7.314285714285714" style="fill:#000;shape-rendering:crispEdges;"/>
  <rect x="175.54285714285714" y="146.28571428571428" width="7.314285714285714" height="7.314285714285714" style="fill:#000;shape-rendering:crispEdges;"/>
  <rect x="182.85714285714283" y="146.28571428571428" width="7.314285714285714" height="7.314285714285714" style="fill:#000;shape-rendering:crispEdges;"/>
  <rect x="197.48571428571427" y="146.28571428571428" width="7.314285714285714" height="7.314285714285714" style="fill:#000;shape-rendering:crispEdges;"/>
  <rect x="204.8" y="146.28571428571428" width="7.314285714285714" height="7.314285714285714" style="fill:#000;shape-rendering:crispEdges;"/>
  <rect x="43.885714285714286" y="153.6" width="7.314285714285714" height="7.314285714285714" style="fill:#000;shape-rendering:crispEdges;"/>
  <rect x="58.51428571428571" y="153.6" width="7.314285714285714" height="7.314285714285714" style="fill:#000;shape-rendering:crispEdges;"/>
  <rect x="65.82857142857142" y="153.6" width="7.314285714285714" height="7.314285714285714" style="fill:#000;shape-rendering:crispEdges;"/>
  <rect x="80.45714285714286" y="153.6" width="7.314285714285714" height="7.314285714285714" style="fill:#000;shape-rendering:crispEdges;"/>
  <rect x="95.08571428571429" y="153.6" width="7.314285714285714" height="7.314285714285714" style="fill:#000;shape-rendering:crispEdges;"/>
  <rect x="124.34285714285714" y="153.6" width="7.314285714285714" height="7.314285714285714" style="fill:#000;shape-rendering:crispEdges;"/>
  <rect x="153.6" y="153.6" width="7.314285714285714" height="7.314285714285714" style="fill:#000;shape-rendering:crispEdges;"/>
  <rect x="160.9142857142857" y="153.6" width="7.314285714285714" height="7.314285714285714" style="fill:#000;shape-rendering:crispEdges;"/>
  <rect x="168.2285714285714" y="153.6" width="7.314285714285714" height="7.314285714285714" style="fill:#000;shape-rendering:crispEdges;"/>
  <rect x="175.54285714285714" y="153.6" width="7.314285714285714" height="7.314285714285714" style="fill:#000;shape-rendering:crispEdges;"/>
  <rect x="182.85714285714283" y="153.6" width="7.314285714285714" height="7.314285714285714" style="fill:#000;shape-rendering:crispEdges;"/>
  <rect x="190.17142857142858" y="153.6" width="7.314285714285714" height="7.314285714285714" style="fill:#000;shape-rendering:crispEdges;"/>
  <rect x="212.1142857142857" y="153.6" width="7.314285714285714" height="7.314285714285714" style="fill:#000;shape-rendering:crispEdges;"/>
  <rect x="95.08571428571429" y="160.9142857142857" width="7.314285714285714" height="7.314285714285714" style="fill:#000;shape-rendering:crispEdges;"/>
  <rect x="138.97142857142856" y="160.9142857142857" width="7.314285714285714" height="7.314285714285714" style="fill:#000;shape-rendering:crispEdges;"/>
  <rect x="153.6" y="160.9142857142857" width="7.314285714285714" height="7.314285714285714" style="fill:#000;shape-rendering:crispEdges;"/>
  <rect x="182.85714285714283" y="160.9142857142857" width="7.314285714285714" height="7.314285714285714" style="fill:#000;shape-rendering:crispEdges;"/>
  <rect x="190.17142857142858" y="160.9142857142857" width="7.314285714285714" height="7.314285714285714" style="fill:#000;shape-rendering:crispEdges;"/>
  <rect x="197.48571428571427" y="160.9142857142857" width="7.314285714285714" height="7.314285714285714" style="fill:#000;shape-rendering:crispEdges;"/>
  <rect x="204.8" y="160.9142857142857" width="7.314285714285714" height="7.314285714285714" style="fill:#000;shape-rendering:crispEdges;"/>
  <rect x="36.57142857142857" y="168.2285714285714" width="7.314285714285714" height="7.314285714285714" style="fill:#000;shape-rendering:crispEdges;"/>
  <rect x="43.885714285714286" y="168.2285714285714" width="7.314285714285714" height="7.314285714285714" style="fill:#000;shape-rendering:crispEdges;"/>
  <rect x="51.199999999999996" y="168.2285714285714" width="7.314285714285714" height="7.314285714285714" style="fill:#000;shape-rendering:crispEdges;"/>
  <rect x="58.51428571428571" y="168.2285714285714" width="7.314285714285714" height="7.314285714285714" style="fill:#000;shape-rendering:crispEdges;"/>
  <rect x="65.82857142857142" y="168.2285714285714" width="7.314285714285714" height="7.314285714285714" style="fill:#000;shape-rendering:crispEdges;"/>
  <rect x="73.14285714285714" y="168.2285714285714" width="7.314285714285714" height="7.314285714285714" style="fill:#000;shape-rendering:crispEdges;"/>
  <rect x="80.45714285714286" y="168.2285714285714" width="7.314285714285714" height="7.314285714285714" style="fill:#000;shape-rendering:crispEdges;"/>
  <rect x="124.34285714285714" y="168.2285714285714" width="7.314285714285714" height="7.314285714285714" style="fill:#000;shape-rendering:crispEdges;"/>
  <rect x="153.6" y="168.2285714285714" width="7.314285714285714" height="7.314285714285714" style="fill:#000;shape-rendering:crispEdges;"/>
  <rect x="168.2285714285714" y="168.2285714285714" width="7.314285714285714" height="7.314285714285714" style="fill:#000;shape-rendering:crispEdges;"/>
  <rect x="182.85714285714283" y="168.2285714285714" width="7.314285714285714" height="7.314285714285714" style="fill:#000;shape-rendering:crispEdges;"/>
  <rect x="190.17142857142858" y="168.2285714285714" width="7.314285714285714" height="7.314285714285714" style="fill:#000;shape-rendering:crispEdges;"/>
  <rect x="212.1142857142857" y="168.2285714285714" width="7.314285714285714" height="7.314285714285714" style="fill:#000;shape-rendering:crispEdges;"/>
  <rect x="36.57142857142857" y="175.54285714285714" width="7.314285714285714" height="7.314285714285714" style="fill:#000;shape-rendering:crispEdges;"/>
  <rect x="80.45714285714286" y="175.54285714285714" width="7.314285714285714" height="7.314285714285714" style="fill:#000;shape-rendering:crispEdges;"/>
  <rect x="102.39999999999999" y="175.54285714285714" width="7.314285714285714" height="7.314285714285714" style="fill:#000;shape-rendering:crispEdges;"/>
  <rect x="117.02857142857142" y="175.54285714285714" width="7.314285714285714" height="7.314285714285714" style="fill:#000;shape-rendering:crispEdges;"/>
  <rect x="146.28571428571428" y="175.54285714285714" width="7.314285714285714" height="7.314285714285714" style="fill:#000;shape-rendering:crispEdges;"/>
  <rect x="153.6" y="175.54285714285714" width="7.314285714285714" height="7.314285714285714" style="fill:#000;shape-rendering:crispEdges;"/>
  <rect x="182.85714285714283" y="175.54285714285714" width="7.314285714285714" height="7.314285714285714" style="fill:#000;shape-rendering:crispEdges;"/>
  <rect x="204.8" y="175.54285714285714" width="7.314285714285714" height="7.314285714285714" style="fill:#000;shape-rendering:crispEdges;"/>
  <rect x="36.57142857142857" y="182.85714285714283" width="7.314285714285714" height="7.314285714285714" style="fill:#000;shape-rendering:crispEdges;"/>
  <rect x="51.199999999999996" y="182.85714285714283" width="7.314285714285714" height="7.314285714285714" style="fill:#000;shape-rendering:crispEdges;"/>
  <rect x="58.51428571428571" y="182.85714285714283" width="7.314285714285714" height="7.314285714285714" style="fill:#000;shape-rendering:crispEdges;"/>
  <rect x="65.82857142857142" y="182.85714285714283" width="7.314285714285714" height="7.314285714285714" style="fill:#000;shape-rendering:crispEdges;"/>
  <rect x="80.45714285714286" y="182.85714285714283" width="7.314285714285714" height="7.314285714285714" style="fill:#000;shape-rendering:crispEdges;"/>
  <rect x="95.08571428571429" y="182.85714285714283" width="7.314285714285714" height="7.314285714285714" style="fill:#000;shape-rendering:crispEdges;"/>
  <rect x="102.39999999999999" y="182.85714285714283" width="7.314285714285714" height="7.314285714285714" style="fill:#000;shape-rendering:crispEdges;"/>
  <rect x="109.71428571428571" y="182.85714285714283" width="7.314285714285714" height="7.314285714285714" style="fill:#000;shape-rendering:crispEdges;"/>
  <rect x="131.65714285714284" y="182.85714285714283" width="7.314285714285714" height="7.314285714285714" style="fill:#000;shape-rendering:crispEdges;"/>
  <rect x="138.97142857142856" y="182.85714285714283" width="7.314285714285714" height="7.314285714285714" style="fill:#000;shape-rendering:crispEdges;"/>
  <rect x="153.6" y="182.85714285714283" width="7.314285714285714" height="7.314285714285714" style="fill:#000;shape-rendering:crispEdges;"/>
  <rect x="160.9142857142857" y="182.85714285714283" width="7.314285714285714" height="7.314285714285714" style="fill:#000;shape-rendering:crispEdges;"/>
  <rect x="168.2285714285714" y="182.85714285714283" width="7.314285714285714" height="7.314285714285714" style="fill:#000;shape-rendering:crispEdges;"/>
  <rect x="175.54285714285714" y="182.85714285714283" width="7.314285714285714" height="7.314285714285714" style="fill:#000;shape-rendering:crispEdges;"/>
  <rect x="182.85714285714283" y="182.85714285714283" width="7.314285714285714" height="7.314285714285714" style="fill:#000;shape-rendering:crispEdges;"/>
  <rect x="197.48571428571427" y="182.85714285714283" width="7.314285714285714" height="7.314285714285714" style="fill:#000;shape-rendering:crispEdges;"/>
  <rect x="204.8" y="182.85714285714283" width="7.314285714285714" height="7.314285714285714" style="fill:#000;shape-rendering:crispEdges;"/>
  <rect x="36.57142857142857" y="190.17142857142858" width="7.314285714285714" height="7.314285714285714" style="fill:#000;shape-rendering:crispEdges;"/>
  <rect x="51.199999999999996" y="190.17142857142858" width="7.314285714285714" height="7.314285714285714" style="fill:#000;shape-rendering:crispEdges;"/>
  <rect x="58.51428571428571" y="190.17142857142858" width="7.314285714285714" height="7.314285714285714" style="fill:#000;shape-rendering:crispEdges;"/>
  <rect x="65.82857142857142" y="190.17142857142858" width="7.314285714285714" height="7.314285714285714" style="fill:#000;shape-rendering:crispEdges;"/>
  <rect x="80.45714285714286" y="190.17142857142858" width="7.314285714285714" height="7.314285714285714" style="fill:#000;shape-rendering:crispEdges;"/>
  <rect x="102.39999999999999" y="190.17142857142858" width="7.314285714285714" height="7.314285714285714" style="fill:#000;shape-rendering:crispEdges;"/>
  <rect x="109.71428571428571" y="190.17142857142858" width="7.314285714285714" height="7.314285714285714" style="fill:#000;shape-rendering:crispEdges;"/>
  <rect x="117.02857142857142" y="190.17142857142858" width="7.314285714285714" height="7.314285714285714" style="fill:#000;shape-rendering:crispEdges;"/>
  <rect x="138.97142857142856" y="190.17142857142858" width="7.314285714285714" height="7.314285714285714" style="fill:#000;shape-rendering:crispEdges;"/>
  <rect x="146.28571428571428" y="190.17142857142858" width="7.314285714285714" height="7.314285714285714" style="fill:#000;shape-rendering:crispEdges;"/>
  <rect x="197.48571428571427" y="190.17142857142858" width="7.314285714285714" height="7.314285714285714" style="fill:#000;shape-rendering:crispEdges;"/>
  <rect x="212.1142857142857" y="190.17142857142858" width="7.314285714285714" height="7.314285714285714" style="fill:#000;shape-rendering:crispEdges;"/>
  <rect x="36.57142857142857" y="197.48571428571427" width="7.314285714285714" height="7.314285714285714" style="fill:#000;shape-rendering:crispEdges;"/>
  <rect x="51.199999999999996" y="197.48571428571427" width="7.314285714285714" height="7.314285714285714" style="fill:#000;shape-rendering:crispEdges;"/>
  <rect x="58.51428571428571" y="197.48571428571427" width="7.314285714285714" height="7.314285714285714" style="fill:#000;shape-rendering:crispEdges;"/>
  <rect x="65.82857142857142" y="197.48571428571427" width="7.314285714285714" height="7.314285714285714" style="fill:#000;shape-rendering:crispEdges;"/>
  <rect x="80.45714285714286" y="197.48571428571427" width="7.314285714285714" height="7.314285714285714" style="fill:#000;shape-rendering:crispEdges;"/>
  <rect x="95.08571428571429" y="197.48571428571427" width="7.314285714285714" height="7.314285714285714" style="fill:#000;shape-rendering:crispEdges;"/>
  <rect x="102.39999999999999" y="197.48571428571427" width="7.314285714285714" height="7.314285714285714" style="fill:#000;shape-rendering:crispEdges;"/>
  <rect x="117.02857142857142" y="197.48571428571427" width="7.314285714285714" height="7.314285714285714" style="fill:#000;shape-rendering:crispEdges;"/>
  <rect x="138.97142857142856" y="197.48571428571427" width="7.314285714285714" height="7.314285714285714" style="fill:#000;shape-rendering:crispEdges;"/>
  <rect x="146.28571428571428" y="197.48571428571427" width="7.314285714285714" height="7.314285714285714" style="fill:#000;shape-rendering:crispEdges;"/>
  <rect x="153.6" y="197.48571428571427" width="7.314285714285714" height="7.314285714285714" style="fill:#000;shape-rendering:crispEdges;"/>
  <rect x="160.9142857142857" y="197.48571428571427" width="7.314285714285714" height="7.314285714285714" style="fill:#000;shape-rendering:crispEdges;"/>
  <rect x="197.48571428571427" y="197.48571428571427" width="7.314285714285714" height="7.314285714285714" style="fill:#000;shape-rendering:crispEdges;"/>
  <rect x="204.8" y="197.48571428571427" width="7.314285714285714" height="7.314285714285714" style="fill:#000;shape-rendering:crispEdges;"/>
  <rect x="36.57142857142857" y="204.8" width="7.314285714285714" height="7.314285714285714" style="fill:#000;shape-rendering:crispEdges;"/>
  <rect x="80.45714285714286" y="204.8" width="7.314285714285714" height="7.314285714285714" style="fill:#000;shape-rendering:crispEdges;"/>
  <rect x="95.08571428571429" y="204.8" width="7.314285714285714" height="7.314285714285714" style="fill:#000;shape-rendering:crispEdges;"/>
  <rect x="102.39999999999999" y="204.8" width="7.314285714285714" height="7.314285714285714" style="fill:#000;shape-rendering:crispEdges;"/>
  <rect x="117.02857142857142" y="204.8" width="7.314285714285714" height="7.314285714285714" style="fill:#000;shape-rendering:crispEdges;"/>
  <rect x="131.65714285714284" y="204.8" width="7.314285714285714" height="7.314285714285714" style="fill:#000;shape-rendering:crispEdges;"/>
  <rect x="138.97142857142856" y="204.8" width="7.314285714285714" height="7.314285714285714" style="fill:#000;shape-rendering:crispEdges;"/>
  <rect x="153.6" y="204.8" width="7.314285714285714" height="7.314285714285714" style="fill:#000;shape-rendering:crispEdges;"/>
  <rect x="160.9142857142857" y="204.8" width="7.314285714285714" height="7.314285714285714" style="fill:#000;shape-rendering:crispEdges;"/>
  <rect x="190.17142857142858" y="204.8" width="7.314285714285714" height="7.314285714285714" style="fill:#000;shape-rendering:crispEdges;"/>
  <rect x="197.48571428571427" y="204.8" width="7.314285714285714" height="7.314285714285714" style="fill:#000;shape-rendering:crispEdges;"/>
  <rect x="204.8" y="204.8" width="7.314285714285714" height="7.314285714285714" style="fill:#000;shape-rendering:crispEdges;"/>
  <rect x="36.57142857142857" y="212.1142857142857" width="7.314285714285714" height="7.314285714285714" style="fill:#000;shape-rendering:crispEdges;"/>
  <rect x="43.885714285714286" y="212.1142857142857" width="7.314285714285714" height="7.314285714285714" style="fill:#000;shape-rendering:crispEdges;"/>
  <rect x="51.199999999999996" y="212.1142857142857" width="7.314285714285714" height="7.314285714285714" style="fill:#000;shape-rendering:crispEdges;"/>
  <rect x="58.51428571428571" y="212.1142857142857" width="7.314285714285714" height="7.314285714285714" style="fill:#000;shape-rendering:crispEdges;"/>
  <rect x="65.82857142857142" y="212.1142857142857" width="7.314285714285714" height="7.314285714285714" style="fill:#000;shape-rendering:crispEdges;"/>
  <rect x="73.14285714285714" y="212.1142857142857" width="7.314285714285714" height="7.314285714285714" style="fill:#000;shape-rendering:crispEdges;"/>
  <rect x="80.45714285714286" y="212.1142857142857" width="7.314285714285714" height="7.314285714285714" style="fill:#000;shape-rendering:crispEdges;"/>
  <rect x="95.08571428571429" y="212.1142857142857" width="7.314285714285714" height="7.314285714285714" style="fill:#000;shape-rendering:crispEdges;"/>
  <rect x="109.71428571428571" y="212.1142857142857" width="7.314285714285714" height="7.314285714285714" style="fill:#000;shape-rendering:crispEdges;"/>
  <rect x="117.02857142857142" y="212.1142857142857" width="7.314285714285714" height="7.314285714285714" style="fill:#000;shape-rendering:crispEdges;"/>
  <rect x="124.34285714285714" y="212.1142857142857" width="7.314285714285714" height="7.314285714285714" style="fill:#000;shape-rendering:crispEdges;"/>
  <rect x="138.97142857142856" y="212.1142857142857" width="7.314285714285714" height="7.314285714285714" style="fill:#000;shape-rendering:crispEdges;"/>
  <rect x="146.28571428571428" y="212.1142857142857" width="7.314285714285714" height="7.314285714285714" style="fill:#000;shape-rendering:crispEdges;"/>
  <rect x="168.2285714285714" y="212.1142857142857" width="7.314285714285714" height="7.314285714285714" style="fill:#000;shape-rendering:crispEdges;"/>
  <rect x="182.85714285714283" y="212.1142857142857" width="7.314285714285714" height="7.314285714285714" style="fill:#000;shape-rendering:crispEdges;"/>
  <rect x="190.17142857142858" y="212.1142857142857" width="7.314285714285714" height="7.314285714285714" style="fill:#000;shape-rendering:crispEdges;"/>
  <rect x="197.48571428571427" y="212.1142857142857" width="7.314285714285714" height="7.314285714285714" style="fill:#000;shape-rendering:crispEdges;"/>
  <rect x="204.8" y="212.1142857142857" width="7.314285714285714" height="7.314285714285714" style="fill:#000;shape-rendering:crispEdges;"/>
  <rect x="212.1142857142857" y="212.1142857142857" width="7.314285714285714" height="7.314285714285714" style="fill:#000;shape-rendering:crispEdges;"/>
</svg>